<?xml version="1.0" standalone="no"?>
<svg viewBox="0 0 200 200" xmlns="http://www.w3.org/2000/svg">
  <path fill="#FA3D6F" d="M43.4,-74.8C57.3,-67.2,70.2,-57.6,78,-44.8C85.8,-32,88.5,-16,89,0.3C89.6,16.6,88,33.2,80.8,47.2C73.7,61.2,61.1,72.5,46.7,78.9C32.3,85.2,16.1,86.6,0.3,86.2C-15.6,85.7,-31.3,83.5,-43.9,76.1C-56.6,68.8,-66.2,56.3,-73,42.8C-79.8,29.2,-83.8,14.6,-84,-0.2C-84.3,-14.9,-80.9,-29.8,-73.7,-42.7C-66.5,-55.5,-55.5,-66.3,-42.6,-74.4C-29.6,-82.5,-14.8,-88,0,-88C14.8,-88,29.6,-82.4,43.4,-74.8Z" transform="translate(100 100)" />
</svg>
